<svg version="1.1" xmlns="http://www.w3.org/2000/svg" style="display: block;" viewBox="0 0 1600 1600" width="400" height="400" preserveAspectRatio="none">
<path transform="translate(0,0)" fill="rgb(1,77,166)" d="M 876.265 570.149 C 883.448 569.814 891.655 569.91 898.874 570.043 C 943.789 570.868 989.655 568.687 1034.47 570.414 C 1034.7 575.28 1015.03 616.749 1011.59 624.281 L 965.935 724.994 L 855.854 968.425 C 851.301 978.398 832.432 1024.39 826.988 1029.13 C 818.336 1030.29 795.055 1029.61 785.053 1029.9 C 746.91 1030.99 705.195 1028.39 667.38 1030.27 C 672.938 1014.08 686.384 987.225 693.771 970.871 L 747.597 851.692 L 837.777 652.142 C 842.987 640.596 870.707 577.129 876.265 570.149 z"/>
<path transform="translate(0,0)" fill="rgb(1,77,166)" d="M 503.676 722.479 C 536.475 721.547 570.15 722.642 603 722.217 C 616.951 722.037 634.962 723.088 648.531 721.739 C 633.218 756.683 617.597 791.492 601.672 826.162 C 594.829 841.305 585.239 860.743 579.653 876.014 C 528.964 878.909 471.423 874.384 420.788 876.639 C 415.19 876.888 359.446 1020.13 349.141 1029.05 C 345.508 1030.47 342.225 1029.69 338.242 1029.27 C 289.502 1030.1 238.707 1029.41 189.86 1029.47 C 194.846 1014.62 213.864 975.396 220.636 960.035 C 226.632 946.434 252.824 886.264 259.752 877.399 C 265.584 874.038 399.054 876.092 418.555 875.684 C 434.787 841.362 449.56 803.866 466.099 769.483 C 470.826 759.657 482.36 731.563 488.494 724.392 C 492.431 722.563 499.086 722.695 503.676 722.479 z"/>
<path transform="translate(0,0)" fill="rgb(1,77,166)" d="M 1258.42 799.349 C 1267.05 798.274 1293.72 799.105 1303.34 798.974 C 1338.96 798.487 1375.23 799.581 1410.86 798.99 C 1402.74 813.371 1390.24 843.922 1382.74 860.509 L 1329.44 977.909 C 1324.5 988.868 1311.98 1020.51 1305.59 1028.47 C 1302.11 1030.63 1299.01 1029.96 1294.75 1029.79 C 1261.17 1030.5 1226.9 1028.8 1193.23 1029.45 C 1179.32 1029.73 1162.97 1030.13 1149.19 1029.13 C 1145.96 1026.31 1148.71 1021.35 1150.37 1017.77 C 1183.73 946.114 1214.27 872.777 1249.25 802.009 C 1250.3 799.879 1256.27 799.586 1258.42 799.349 z"/>
<path transform="translate(0,0)" fill="rgb(1,77,166)" d="M 1195.46 570.131 C 1246.53 568.593 1304.62 572.227 1354.84 569.678 L 1285.02 724.139 C 1276.12 743.796 1259.73 783.296 1249.9 799.835 C 1213.45 801.022 1175.68 799.962 1139.15 800.265 C 1122.84 800.4 1106.43 799.617 1090.13 800.349 C 1105.34 761.783 1128.45 714.012 1145.8 675.652 L 1175.84 609.216 C 1179.71 600.66 1189.87 575.376 1195.46 570.131 z"/>
<path transform="translate(0,0)" fill="rgb(1,77,166)" d="M 398.094 570.109 C 411.643 569.17 435.864 569.97 450.246 569.977 L 558.446 569.933 C 552.243 581.908 545.661 597.563 540.041 610.07 L 507.767 681.671 C 502.47 693.329 494.089 712.804 487.898 723.409 C 475.233 724.81 448.424 723.995 434.446 723.983 L 327.837 723.999 C 342.974 689.376 358.39 654.876 374.084 620.502 C 378.43 610.851 392.715 577.215 398.094 570.109 z"/>
</svg>